<svg xmlns="http://www.w3.org/2000/svg" viewBox="0 0 106.58 165.49"><defs><style>.cls-1{fill:#fff;}</style></defs><g id="Capa_2" data-name="Capa 2"><g id="Capa_1-2" data-name="Capa 1"><g id="Capa_2-2" data-name="Capa 2"><g id="Capa_1-2-2" data-name="Capa 1-2"><path class="cls-1" d="M105.32,112.81a58.59,58.59,0,0,0-3.86-11.32A82.69,82.69,0,0,0,96,91.5l-.74-1.18-.66-1-1.4-2.11c-1-1.42-1.85-2.8-2.74-4.18-1.79-2.75-3.56-5.57-5.3-8.37q-5.3-8.39-9.9-17A100.77,100.77,0,0,1,67.74,40.1,50.79,50.79,0,0,1,65.6,21.36C66,14.8,67.29,8,68,1.26c-2.7,6.28-5.51,12.41-7.55,19.14a54.17,54.17,0,0,0-2.08,10.54,58.8,58.8,0,0,0,.1,10.94,87.34,87.34,0,0,0,1.91,10.65c.84,3.48,1.93,6.84,3,10.19,2.26,6.67,5,13.06,7.83,19.37,1.44,3.15,2.93,6.23,4.47,9.34C76.48,93,77.25,94.54,78,96l1.14,2.26.6,1.15.51,1a65.11,65.11,0,0,1,3.45,8.17,46.82,46.82,0,0,1,2,8,28.65,28.65,0,0,1,.15,7.4A20.71,20.71,0,0,1,84,130.27a17.37,17.37,0,0,1-3.71,5,18.61,18.61,0,0,1-2.55,2,22.07,22.07,0,0,1-3,1.77,33.73,33.73,0,0,1-14.5,3.37,41.34,41.34,0,0,1-22.37-5.94,36.6,36.6,0,0,1-6-4.65l-.56-.56L31,131l-.15-.15-.21-.23-.85-.94-.2-.23h0l-.29-.36a31.84,31.84,0,0,1-2.23-2.93,29,29,0,0,1-3.24-6.47,32.26,32.26,0,0,1-1.61-7.32,41.93,41.93,0,0,1-.14-8A60.22,60.22,0,0,1,23.41,96a80.18,80.18,0,0,1,2.4-8.61Q27.3,83,29.19,78.72c1.08-2.49,2.26-5,3.51-7.41.2.62.39,1.23.6,1.85a81.59,81.59,0,0,0,4.94,11.4A52.6,52.6,0,0,0,41.51,90a53.67,53.67,0,0,0,3.9,5c.36.4.69.79,1.08,1.2l1.19,1.22c.8.81,1.35,1.22,2.18,2a28.82,28.82,0,0,0,5.91,3.19,50,50,0,0,0,6.67,1.87c-.08-.33-.18-.65-.28-1A40.54,40.54,0,0,1,54,89.63l-.45-.72a42.74,42.74,0,0,1-2.37-4.49c-.7-1.56-1.32-3.16-1.9-4.78a67.56,67.56,0,0,1-2.64-10.1,90.47,90.47,0,0,1-1.4-10.49c-.14-1.76-.21-3.53-.27-5.28V49.26a4.34,4.34,0,0,1,0-.51l4.33-26.7L30.2,43.46l-1,1.12-.9,1-1.74,2.07q-1.72,2.09-3.34,4.22c-2.16,2.85-4.2,5.79-6.16,8.81S13.24,66.83,11.51,70A109.63,109.63,0,0,0,6.75,80,99.58,99.58,0,0,0,3,90.6,80.88,80.88,0,0,0,.55,102a64.43,64.43,0,0,0-.44,12.18,52.94,52.94,0,0,0,2.31,12.48,51.93,51.93,0,0,0,5.39,11.76c.58.9,1.15,1.82,1.78,2.68s1.26,1.74,1.93,2.56l.51.62.4.47.21.24.83.95.21.24.29.3.6.63,1.21,1.24a59.57,59.57,0,0,0,21,13.31,63.64,63.64,0,0,0,24.3,3.78,55,55,0,0,0,24.32-6.65,41.64,41.64,0,0,0,10.63-8.26,38.6,38.6,0,0,0,4.29-5.49,37,37,0,0,0,3.26-6.2,38.72,38.72,0,0,0,2.93-13.33A49.3,49.3,0,0,0,105.32,112.81Z"/><path class="cls-1" d="M81.4,37.28s-.15-.09-.41-.28a12.7,12.7,0,0,1-1.07-.87,20.14,20.14,0,0,1-3.16-3.73,22.36,22.36,0,0,1-1.62-2.86,25,25,0,0,1-1.34-3.46A23.82,23.82,0,0,1,73,22.17a23,23,0,0,1,.42-8.34c.08-.34.17-.67.25-1s.21-.66.31-1l.33-1c.12-.31.26-.61.39-.91a16.3,16.3,0,0,1,.85-1.73,14.36,14.36,0,0,1,1-1.57,23,23,0,0,1,2-2.62,23.9,23.9,0,0,1,2-1.9A17.1,17.1,0,0,1,82.27.91c.5-.32.93-.53,1.2-.69A3.06,3.06,0,0,1,83.9,0a1.19,1.19,0,0,1-.15.47c-.15.3-.25.74-.46,1.27s-.41,1.19-.69,1.9c-.06.19-.14.37-.21.55l-.19.6L81.76,6c-.26.88-.58,1.78-.83,2.76-.06.25-.14.49-.21.73l-.18.75a2.92,2.92,0,0,1-.19.76c-.07.25-.1.52-.16.78s-.1.52-.16.78-.09.53-.13.8c-.11.53-.18,1.07-.25,1.62-.16,1.08-.23,2.19-.31,3.3a24.82,24.82,0,0,0,0,3.34c.07,1.11.11,2.21.17,3.3s.21,2.13.35,3.14.28,2,.43,2.89.3,1.75.43,2.51.27,1.44.37,2Z"/></g></g></g></g></svg>